Coordinates
version=1
nRows=11
nColumns=36
inDegrees=yes

Units are S.I. units (second, meters, Newtons, ...)
If the header above contains a line with 'inDegrees', this indicates whether rotational values are in degrees (yes) or radians (no).

endheader
time	pelvis_tilt	pelvis_list	pelvis_rotation	pelvis_tx	pelvis_ty	pelvis_tz	hip_flexion_r	hip_adduction_r	hip_rotation_r	knee_angle_r	knee_angle_r_beta	ankle_angle_r	subtalar_angle_r	mtp_angle_r	hip_flexion_l	hip_adduction_l	hip_rotation_l	knee_angle_l	knee_angle_l_beta	ankle_angle_l	subtalar_angle_l	mtp_angle_l	lumbar_extension	lumbar_bending	lumbar_rotation	arm_flex_r	arm_add_r	arm_rot_r	elbow_flex_r	pro_sup_r	arm_flex_l	arm_add_l	arm_rot_l	elbow_flex_l	pro_sup_l
      0.00000000	      0.56410538	      3.12686590	     -4.15719137	      0.01250627	      1.28965281	     -0.07394615	     -7.07946755	     -1.66649275	     -2.63409496	      1.10631027	      0.01930876	      4.50607092	     -8.22868961	     -6.03543512	     -4.20097082	     -0.95430819	      0.80310440	      6.79325525	      0.11856467	      3.49945120	     -9.73843373	     -6.03543512	    -11.42058210	     -0.70591428	     -2.32145323	      6.24705964	     -8.29695061	     28.29559915	     22.92331314	     65.49445522	      4.82737723	     -8.92910733	     27.93070301	     25.25650905	     62.28893450
      0.01666670	      0.18273076	      3.32000684	     -4.47905356	      0.01274752	      1.28791415	     -0.07425539	     -7.03310657	     -1.44158406	     -2.50540445	      0.62553824	      0.01091770	      6.48126984	     -5.50329454	     -7.08101097	     -4.52184738	     -0.42836706	      1.00297419	      5.50693958	      0.09611423	      3.31960454	     -8.64209829	     -7.08101097	    -10.49523165	     -0.37623524	     -1.82657316	      6.42231040	     -8.22612857	     28.22128345	     22.17973836	     63.89103363	      4.90613755	     -8.50256196	     28.69487170	     25.24137688	     62.41645817
      0.03333330	     -0.57195030	      3.59136965	     -4.69292127	      0.01187163	      1.28653576	     -0.07351979	     -6.23579875	     -1.39220314	     -2.86338417	      0.45856087	      0.00800340	      6.51965700	     -5.93075098	     -7.39365259	     -3.74996411	     -0.23623475	      0.76113916	      5.33925180	      0.09318752	      3.50655371	     -7.94099067	     -7.39365259	     -9.77146226	     -0.77630577	     -1.16257511	      6.19858434	     -8.08266565	     27.97074800	     22.41221163	     64.12637836	      5.57319876	     -8.76006633	     30.52422538	     24.94637668	     63.60393516
      0.05000000	     -0.36814934	      3.70581466	     -4.75056859	      0.01169467	      1.28550333	     -0.07334411	     -6.50139505	     -1.54465365	     -2.90737804	      0.37220885	      0.00649627	      6.79364370	     -5.67425806	     -7.40601747	     -4.40400309	     -0.04982086	      0.79191016	      4.49182198	      0.07839708	      3.27653468	     -7.61810921	     -7.40601747	    -10.16319559	     -1.07458318	     -0.97195646	      6.21234174	     -7.93665735	     27.63197677	     22.72975886	     64.42471946	      5.85620064	     -8.90889078	     30.87219201	     25.00666564	     63.95832676
      0.06666670	     -0.36105520	      3.68970461	     -4.74812053	      0.01151101	      1.28704883	     -0.07341340	     -6.55733158	     -1.53432150	     -2.77602658	      0.34129674	      0.00595675	      6.77748714	     -6.15898450	     -7.41839140	     -4.67470257	     -0.01867563	      0.81563803	      4.00810176	      0.06995457	      3.25927913	     -7.54306285	     -7.41839140	    -10.36668974	     -1.07428857	     -0.61224185	      6.07387543	     -7.87567304	     26.94621057	     23.09743504	     65.66048854	      6.42599401	     -8.87914979	     32.40510614	     24.64430909	     65.17558318
      0.08333330	     -0.23474790	      3.67882096	     -4.78389304	      0.00970468	      1.28766944	     -0.07391582	     -6.63856786	     -1.58205484	     -2.61519384	      0.32638143	      0.00569643	      6.89820790	     -6.18423373	     -7.45305088	     -4.91053752	      0.01309999	      0.65982568	      3.80190274	      0.06635572	      3.47803441	     -7.04432802	     -7.45305088	    -10.66480292	     -1.09154621	     -0.09744967	      5.77395940	     -7.55029607	     22.93674462	     23.56043999	     73.27684580	      6.97648084	     -8.66256218	     32.49900067	     24.19855184	     69.07985569
      0.10000000	     -0.07250933	      3.66522119	     -4.83660096	      0.00970508	      1.28641134	     -0.07432025	     -6.84227248	     -1.61129576	     -2.45200506	      0.31567868	      0.00550963	      6.84470158	     -6.42847575	     -7.45970398	     -5.11285613	      0.03819041	      0.66144044	      3.80358346	      0.06638505	      3.67478806	     -6.73673762	     -7.45970398	    -11.06574599	     -1.05840226	     -0.11620705	      6.03545733	     -7.43701582	     22.78965204	     23.85299207	     72.56085809	      7.18000450	     -8.60088749	     32.12309290	     24.38382929	     68.55403372
      0.11666670	      0.07475418	      3.66419518	     -4.94215781	      0.01158902	      1.28669988	     -0.07398949	     -7.06089033	     -1.64969299	     -2.17800338	      0.31175401	      0.00544113	      6.79040896	     -6.69217446	     -7.47808378	     -5.32762722	      0.07579170	      0.67867231	      3.81060343	      0.06650758	      3.71132062	     -6.73602712	     -7.47808378	    -11.29891934	     -1.04577107	      0.06581243	      6.02661533	     -7.31150092	     21.32442731	     24.09486529	     76.33255530	      7.25065445	     -8.45270893	     30.73966695	     24.64091487	     71.49447718
      0.13333330	      0.18555536	      3.67144596	     -4.96420194	      0.01224157	      1.28662933	     -0.07366019	     -7.23507930	     -1.66499347	     -2.01704694	      0.30370251	      0.00530061	      6.61522829	     -7.04977399	     -7.48318307	     -5.49969442	      0.07359029	      0.67031085	      3.85974700	      0.06736529	      3.64181688	     -6.73887256	     -7.48318307	    -11.42138652	     -1.06877798	      0.08406001	      5.98986456	     -7.17102763	     20.95999504	     24.36480496	     74.58546909	      7.24463718	     -8.37558985	     30.00084422	     24.86944157	     70.23959999
      0.15000000	      0.13905479	      3.65036798	     -4.98912446	      0.01462452	      1.28532077	     -0.07326462	     -7.28093656	     -1.63174041	     -2.06967218	      0.29953796	      0.00522792	      6.70322793	     -6.99171029	     -7.48357301	     -5.54716965	      0.02841027	      0.74986524	      3.91410830	      0.06831408	      3.69334189	     -6.66979765	     -7.48357301	    -11.17937442	     -1.02411991	      0.15262297	      5.82811395	     -7.14762365	     20.90051560	     24.50758526	     74.53952320	      7.13853977	     -8.41706359	     29.88909620	     25.06725415	     70.21154552
      0.16666670	      0.27947568	      3.61100932	     -4.98961889	      0.01631379	      1.28437647	     -0.07313579	     -7.52115352	     -1.59682319	     -2.20629020	      0.29055812	      0.00507120	      6.76204804	     -6.89229560	     -7.48640928	     -5.80478176	     -0.02919337	      0.93383988	      3.93658262	      0.06870633	      3.60491115	     -6.91470705	     -7.48640928	    -11.29886583	     -0.99210445	      0.11663528	      5.72299309	     -6.85394261	     19.25342379	     24.38562513	     76.71154921	      6.87901042	     -8.23320482	     27.56574767	     25.28742843	     72.24972868
